<svg width="42" height="42" viewBox="0 0 42 42" fill="none" xmlns="http://www.w3.org/2000/svg">
<g clip-path="url(#clip0)">
<path d="M24.273 16.2478H21.7542V13.729C21.7542 12.7578 20.248 12.7578 20.248 13.729V16.2478H17.7292C16.7582 16.2478 16.7582 17.754 17.7292 17.754H20.248V20.2728C20.248 21.244 21.7542 21.244 21.7542 20.2728V17.754H24.273C25.2441 17.754 25.2441 16.2478 24.273 16.2478Z" fill="#F0EFF4"/>
</g>
<path d="M7.875 9.1875C5.71594 9.1875 3.9375 10.9659 3.9375 13.125V15.9967C2.42025 16.5441 1.3125 17.9904 1.3125 19.6875V34.125H3.9375V31.5H38.0625V34.125H40.6875V19.6875C40.6875 17.9904 39.5798 16.5441 38.0625 15.9954V13.125C38.0625 10.9659 36.2841 9.1875 34.125 9.1875H7.875ZM7.875 11.8125H34.125C34.8534 11.8125 35.4375 12.3966 35.4375 13.125V15.9967C33.9202 16.5441 32.8125 17.9904 32.8125 19.6875V22.3125H9.1875V19.6875C9.1875 17.9904 8.07975 16.5441 6.5625 15.9954V13.125C6.5625 12.3966 7.14656 11.8125 7.875 11.8125ZM5.25 18.375C5.97844 18.375 6.5625 18.9591 6.5625 19.6875V24.9375H35.4375V19.6875C35.4375 18.9591 36.0216 18.375 36.75 18.375C37.4784 18.375 38.0625 18.9591 38.0625 19.6875V28.875H3.9375V19.6875C3.9375 18.9591 4.52156 18.375 5.25 18.375Z" fill="#F0EFF4"/>
<defs>
<clipPath id="clip0">
<rect width="8" height="8" fill="white" transform="translate(17 13)"/>
</clipPath>
</defs>
</svg>
