<svg width="40" height="40" viewBox="0 0 40 40" fill="none" xmlns="http://www.w3.org/2000/svg">
<path fill-rule="evenodd" clip-rule="evenodd" d="M5.12207 34.7487V17.9706H7.70331V34.7487C7.70331 35.091 7.83928 35.4192 8.08132 35.6613C8.32336 35.9033 8.65163 36.0393 8.99392 36.0393H32.225C32.5673 36.0393 32.8956 35.9033 33.1376 35.6613C33.3797 35.4192 33.5157 35.091 33.5157 34.7487V17.9706H36.0969V34.7487C36.0969 35.7755 35.689 36.7604 34.9629 37.4865C34.2367 38.2126 33.2519 38.6205 32.225 38.6205H8.99392C7.96704 38.6205 6.98222 38.2126 6.25611 37.4865C5.53 36.7604 5.12207 35.7755 5.12207 34.7487ZM33.5157 6.35507V15.3894L28.3532 10.2269V6.35507C28.3532 6.01278 28.4892 5.6845 28.7312 5.44247C28.9732 5.20043 29.3015 5.06445 29.6438 5.06445H32.225C32.5673 5.06445 32.8956 5.20043 33.1376 5.44247C33.3797 5.6845 33.5157 6.01278 33.5157 6.35507Z" fill="#F0EFF4"/>
<path fill-rule="evenodd" clip-rule="evenodd" d="M18.7845 3.77406C19.2686 3.29015 19.925 3.01831 20.6094 3.01831C21.2939 3.01831 21.9503 3.29015 22.4344 3.77406L39.5918 20.929C39.8342 21.1713 39.9703 21.5 39.9703 21.8427C39.9703 22.1854 39.8342 22.5141 39.5918 22.7565C39.3495 22.9988 39.0208 23.135 38.6781 23.135C38.3354 23.135 38.0067 22.9988 37.7643 22.7565L20.6094 5.599L3.45454 22.7565C3.2122 22.9988 2.88351 23.135 2.54078 23.135C2.19806 23.135 1.86937 22.9988 1.62703 22.7565C1.38468 22.5141 1.24854 22.1854 1.24854 21.8427C1.24854 21.5 1.38468 21.1713 1.62703 20.929L18.7845 3.77406Z" fill="#F0EFF4"/>
<g clip-path="url(#clip0)">
<path d="M26.3319 22.151H21.9892V17.8083C21.9892 16.1337 19.3922 16.1337 19.3922 17.8083V22.151H15.0495C13.3754 22.151 13.3754 24.7479 15.0495 24.7479H19.3922V29.0906C19.3922 30.7652 21.9892 30.7652 21.9892 29.0906V24.7479H26.3319C28.0062 24.7479 28.0062 22.151 26.3319 22.151Z" fill="#F0EFF4"/>
</g>
<defs>
<clipPath id="clip0">
<rect width="13.7931" height="13.7931" fill="white" transform="translate(13.793 16.5518)"/>
</clipPath>
</defs>
</svg>
