<svg width="16" height="16" viewBox="0 0 16 16" fill="none" xmlns="http://www.w3.org/2000/svg">
<path d="M1.3335 2.66671C1.3335 2.31309 1.47397 1.97395 1.72402 1.7239C1.97407 1.47385 2.31321 1.33337 2.66683 1.33337H9.3335C9.68712 1.33337 10.0263 1.47385 10.2763 1.7239C10.5264 1.97395 10.6668 2.31309 10.6668 2.66671V5.33337H13.3335C13.6871 5.33337 14.0263 5.47385 14.2763 5.7239C14.5264 5.97395 14.6668 6.31309 14.6668 6.66671V13.3334C14.6668 13.687 14.5264 14.0261 14.2763 14.2762C14.0263 14.5262 13.6871 14.6667 13.3335 14.6667H6.66683C6.31321 14.6667 5.97407 14.5262 5.72402 14.2762C5.47397 14.0261 5.3335 13.687 5.3335 13.3334V10.6667H2.66683C2.31321 10.6667 1.97407 10.5262 1.72402 10.2762C1.47397 10.0261 1.3335 9.687 1.3335 9.33337V2.66671ZM6.66683 10.6667V13.3334H13.3335V6.66671H10.6668V9.33337C10.6668 9.687 10.5264 10.0261 10.2763 10.2762C10.0263 10.5262 9.68712 10.6667 9.3335 10.6667H6.66683ZM9.3335 9.33337V2.66671H2.66683V9.33337H9.3335Z" fill="#3D2645"/>
</svg>
