<svg width="40" height="40" viewBox="0 0 40 40" fill="none" xmlns="http://www.w3.org/2000/svg">
<path fill-rule="evenodd" clip-rule="evenodd" d="M10 2.5H30C31.3261 2.5 32.5979 3.02678 33.5355 3.96447C34.4732 4.90215 35 6.17392 35 7.5V32.5C35 33.8261 34.4732 35.0979 33.5355 36.0355C32.5979 36.9732 31.3261 37.5 30 37.5H10C8.67392 37.5 7.40215 36.9732 6.46447 36.0355C5.52678 35.0979 5 33.8261 5 32.5V7.5C5 6.17392 5.52678 4.90215 6.46447 3.96447C7.40215 3.02678 8.67392 2.5 10 2.5ZM10 5C9.33696 5 8.70107 5.26339 8.23223 5.73223C7.76339 6.20107 7.5 6.83696 7.5 7.5V32.5C7.5 33.163 7.76339 33.7989 8.23223 34.2678C8.70107 34.7366 9.33696 35 10 35H30C30.663 35 31.2989 34.7366 31.7678 34.2678C32.2366 33.7989 32.5 33.163 32.5 32.5V7.5C32.5 6.83696 32.2366 6.20107 31.7678 5.73223C31.2989 5.26339 30.663 5 30 5H10Z" fill="#F0EFF4"/>
<path d="M34.46 35C33.2175 31.825 29.49 27.5 20 27.5C10.51 27.5 6.78254 31.825 5.54004 35H34.46Z" fill="#F0EFF4"/>
<path fill-rule="evenodd" clip-rule="evenodd" d="M20 25C20.9849 25 21.9602 24.806 22.8701 24.4291C23.7801 24.0522 24.6069 23.4997 25.3033 22.8033C25.9997 22.1069 26.5522 21.2801 26.9291 20.3701C27.306 19.4602 27.5 18.4849 27.5 17.5C27.5 16.5151 27.306 15.5398 26.9291 14.6299C26.5522 13.7199 25.9997 12.8931 25.3033 12.1967C24.6069 11.5003 23.7801 10.9478 22.8701 10.5709C21.9602 10.194 20.9849 10 20 10C18.0109 10 16.1032 10.7902 14.6967 12.1967C13.2902 13.6032 12.5 15.5109 12.5 17.5C12.5 19.4891 13.2902 21.3968 14.6967 22.8033C16.1032 24.2098 18.0109 25 20 25Z" fill="#F0EFF4"/>
</svg>
